<svg xmlns="http://www.w3.org/2000/svg" viewBox="0 0 640 512"><path d="M162 373.3l35.6-38c3.8-4 3.5-10.4-.7-14.1L122.8 256l74.2-65.2c4.2-3.7 4.5-10.1.7-14.1l-35.6-38c-3.7-3.9-9.9-4.2-13.9-.4l-118 110.5c-4.2 3.8-4.2 10.5 0 14.3l118 110.6c3.9 3.8 10.1 3.6 13.8-.4zm329.9.5l118-110.6c4.2-3.8 4.2-10.5 0-14.3l-118-110.7c-3.9-3.7-10.2-3.5-13.9.4l-35.6 38c-3.8 4-3.5 10.4.7 14.1l74.2 65.3-74.3 65.3c-4.2 3.7-4.5 10.1-.7 14.1l35.6 38c3.8 3.9 10 4.1 14 .4z"/><path d="M317.4 465.2l-49.9-14.5c-5.2-1.5-8.2-7-6.7-12.2l111.6-385c1.5-5.2 7-8.2 12.2-6.7l49.9 14.5c5.2 1.5 8.2 7 6.7 12.2l-111.6 385c-1.6 5.2-7 8.2-12.2 6.7z" fill="#81d742"/></svg>