<svg width="119" height="89" fill="none" xmlns="http://www.w3.org/2000/svg"><path d="M.962.8h117.16V89H.962z"/><path d="M3.86 89c-.84 0-1.554-.252-2.142-.756-.504-.588-.756-1.302-.756-2.142V3.824c0-.924.252-1.638.756-2.142A2.916 2.916 0 0 1 3.86.8h52.038c.84 0 1.512.294 2.016.882.588.504.882 1.218.882 2.142v4.788c0 .84-.252 1.554-.756 2.142-.504.504-1.218.756-2.142.756h-42.84v27.594h40.068c.84 0 1.512.294 2.016.882.588.504.882 1.218.882 2.142v4.662c0 .84-.294 1.554-.882 2.142-.504.504-1.176.756-2.016.756H13.058V78.29h43.848c.924 0 1.638.252 2.142.756s.756 1.218.756 2.142v4.914c0 .84-.294 1.554-.882 2.142-.504.504-1.176.756-2.016.756H3.86z" fill="#81D742"/><path d="M58.272 89c-.84 0-1.554-.252-2.142-.756-.504-.588-.756-1.302-.756-2.142V3.824c0-.924.252-1.638.756-2.142A2.916 2.916 0 0 1 58.272.8h6.3c.924 0 1.638.294 2.142.882.588.504.882 1.218.882 2.142v31.248l33.642-32.256C102.582 1.472 104.22.8 106.152.8h6.804c.672 0 1.26.252 1.764.756s.756 1.092.756 1.764c0 .672-.168 1.218-.504 1.638L76.038 43.01l41.454 41.706c.42.504.63 1.092.63 1.764 0 .672-.252 1.26-.756 1.764s-1.092.756-1.764.756h-7.056c-1.848 0-3.486-.714-4.914-2.142L67.596 51.452v34.65c0 .84-.294 1.554-.882 2.142-.588.504-1.302.756-2.142.756h-6.3z" fill="#000"/></svg>