<?xml version="1.0" encoding="utf-8"?>
<!-- Generator: Adobe Illustrator 22.1.0, SVG Export Plug-In . SVG Version: 6.00 Build 0)  -->
<svg version="1.1" id="Layer_1" xmlns="http://www.w3.org/2000/svg" xmlns:xlink="http://www.w3.org/1999/xlink" x="0px" y="0px"
	 viewBox="0 0 640 512" style="enable-background:new 0 0 640 512;" xml:space="preserve">
<style type="text/css">
	.st0{fill:#81D742;}
</style>
<path d="M162,373.3l35.6-38c3.8-4,3.5-10.4-0.7-14.1L122.8,256l74.2-65.2c4.2-3.7,4.5-10.1,0.7-14.1l-35.6-38
	c-3.7-3.9-9.9-4.2-13.9-0.4l-118,110.5c-4.2,3.8-4.2,10.5,0,14.3l118,110.6C152.1,377.5,158.3,377.3,162,373.3L162,373.3z
	 M491.9,373.8l118-110.6c4.2-3.8,4.2-10.5,0-14.3l-118-110.7c-3.9-3.7-10.2-3.5-13.9,0.4l-35.6,38c-3.8,4-3.5,10.4,0.7,14.1
	l74.2,65.3L443,321.3c-4.2,3.7-4.5,10.1-0.7,14.1l35.6,38C481.7,377.3,487.9,377.5,491.9,373.8L491.9,373.8z"/>
<path class="st0" d="M317.4,465.2l-49.9-14.5c-5.2-1.5-8.2-7-6.7-12.2L372.4,53.5c1.5-5.2,7-8.2,12.2-6.7l49.9,14.5
	c5.2,1.5,8.2,7,6.7,12.2L329.6,458.5C328,463.7,322.6,466.7,317.4,465.2z"/>
</svg>
